<svg height="24" width="24" xmlns="http://www.w3.org/2000/svg"><g transform="translate(0 -1028.4)"><path d="m3 1035.4v2 1 3 1 5 1c0 1.1.8954 2 2 2h14c1.105 0 2-.9 2-2v-1-5-4-3z" fill="#16a085"/><path d="m3 1034.4v2 1 3 1 5 1c0 1.1.8954 2 2 2h14c1.105 0 2-.9 2-2v-1-5-4-3z" fill="#ecf0f1"/><path d="m3 1033.4v2 1 3 1 5 1c0 1.1.8954 2 2 2h14c1.105 0 2-.9 2-2v-1-5-4-3z" fill="#bdc3c7"/><path d="m3 1032.4v2 1 3 1 5 1c0 1.1.8954 2 2 2h14c1.105 0 2-.9 2-2v-1-5-4-3z" fill="#ecf0f1"/><path d="m5 1028.4c-1.1046 0-2 .9-2 2v1 4 2 1 3 1 5 1c0 1.1.8954 2 2 2h2v-1h-1.5c-.8284 0-1.5-.7-1.5-1.5 0-.9.6716-1.5 1.5-1.5h12.5 1c1.105 0 2-.9 2-2v-1-5-4-3-1c0-1.1-.895-2-2-2h-4z" fill="#16a085"/><path d="m8 1028.4v18h1 9 1c1.105 0 2-.9 2-2v-1-5-4-3-1c0-1.1-.895-2-2-2h-4-6z" fill="#1abc9c"/><path d="m7 1048.4v2 2l2.5-2 2.5 2v-2-2z" fill="#e74c3c"/><path d="m7 1047.4h5v1h-5z" fill="#c0392b"/></g></svg>